<?xml version="1.0" encoding="UTF-8"?>
<svg width="90pt" height="90pt" preserveAspectRatio="xMidYMid" version="1.0" viewBox="0 0 90 90" xmlns="http://www.w3.org/2000/svg">
  <g transform="matrix(.028854 0 0 -.028854 2.6401 86.718)">
    <path d="m798 2669c-87-20-159-96-178-186-7-31-10-422-8-1118 3-1032 4-1071 22-1110 11-22 38-57 60-78 74-68 71-68 732-65l589 3 50 26c56 30 89 69 111 131 17 48 20 323 4 333-6 3-19 4-29 0-18-5-20-19-23-165-3-176-8-190-78-238l-33-22h-614c-564 0-616 1-641 17-35 23-62 52-73 81-5 13-9 499-9 1120 0 1049 1 1099 19 1132 10 19 36 45 57 57l39 23h1222l33-22c54-37 72-69 77-139l5-64h-260c-254 0-261-1-291-22-30-23-34-23-355-23-224 0-333-4-350-12-43-19-66-82-66-180 0-64 4-89 15-98 33-27 43-5 47 98 2 65 8 105 17 115 12 15 48 17 332 17h319v-438l29-31c25-27 36-31 79-31s52-4 73-31c13-18 32-40 41-51s18-23 20-28c2-4 13-10 25-14 22-7 47 12 80 62 9 12 22 22 29 22 12 0 14-68 14-415 0-228-2-415-4-415s-23 9-47 20c-37 16-66 20-176 20h-133v33c0 25 11 44 46 82 28 31 49 65 57 93 9 34 19 48 50 65 55 31 81 77 74 133-6 55-19 72-64 80-27 5-34 11-30 24 6 25-9 104-29 145-24 52-95 120-150 146-36 16-68 23-120 23-129 2-236-75-285-204-10-27-19-67-19-88-1-34-5-39-43-57-55-26-67-65-42-131 14-36 26-49 60-66 35-17 45-28 55-62 13-43 75-136 91-136 5 0 9-18 9-40v-40h-130c-111 0-137-3-170-20-22-11-44-20-50-20-7 0-10 162-10 506v505l-27-3-28-3-3-670c-3-735-2-743 52-776 29-18 59-19 539-19 455 0 510 2 533 16 55 37 54 21 54 694v620h140v-524c0-456 2-525 15-530 8-3 22-3 30 0 13 5 15 74 15 530v524h84c76 0 85 2 112 27 28 26 29 30 32 133 3 94 2 108-13 114-34 13-45-12-45-103 0-47-4-91-8-98-5-8-71-13-230-15-185-2-224-6-232-18-26-45-57-79-71-80-14 0-28 14-73 75-11 15-30 21-78 25l-63 5v470l364 3c260 2 368-1 377-9 9-7 14-33 14-69 0-60 12-76 45-64 11 5 15 22 15 67 0 108-46 147-172 147h-58l-1 48c-1 94-46 167-128 209l-56 28-585 2c-322 1-602-3-622-8zm661-960c71-15 123-57 156-124 28-55 28-57 21-191-13-246-28-286-129-344-94-54-193-34-276 55-24 26-42 57-45 77-13 84-25 317-17 348 21 94 90 162 181 181 51 10 54 10 109-2zm-359-379c0-22-2-40-5-40-10 0-26 53-21 67 11 27 26 11 26-27zm636 26c16-17 19-36 4-36-5 0-10-6-10-14s-5-18-11-22c-15-9-33 12-23 28 5 7 9 21 10 31 3 33 7 35 30 13zm-336-400c19 0 52 4 73 8 36 8 37 8 37-22 0-20 7-36 21-46 28-19 19-45-31-90-35-31-47-36-91-36-59 0-99 19-128 59-26 36-26 46-1 78 11 14 20 34 20 45 0 17 4 19 33 12 17-5 48-8 67-8zm-201-103c33-91 146-164 229-148 82 15 137 59 172 138l21 47h100c117 0 160-14 189-62 17-28 20-50 20-156 0-68-5-132-10-143-9-15-22-19-65-19-51 0-55 2-55 24 0 28-24 51-45 42-9-3-18-19-21-36l-6-30h-658v24c0 13-7 29-15 36-20 17-45-3-45-37 0-23-2-24-57-21-74 4-83 19-83 148 0 114 11 158 47 192 35 33 46 35 168 37l101 1z"/>
    <path d="m1596 725c-3-9-6-25-6-36 0-14-7-19-30-19-22 0-30-5-30-18 0-23 19-42 42-42 11 0 18-7 18-18 0-46 46-55 61-12 6 17 16 30 23 30s20 6 30 13c23 17 11 47-19 47-16 0-24 8-31 33-11 36-47 50-58 22z"/>
    <path d="m1150 2495c-7-8-10-22-6-30 5-13 39-15 258-13l253 3v50l-246 3c-209 2-248 0-259-13z"/>
    <path d="m1950 2215c0-23 4-26 28-23 19 2 27 9 27 23s-8 21-27 23c-24 3-28 0-28-23z"/>
    <path d="m1904 2136c-9-24 3-46 26-46 18 0 20-6 20-59 0-58-1-60-27-63-22-2-28-8-28-28 0-24 3-25 65-28 87-4 112 3 108 31-2 16-11 23-30 25-27 3-27 4-30 90l-3 87-48 3c-35 2-49-1-53-12z"/>
    <path d="m1146 324c-16-40 5-44 253-44 130 0 242 4 249 9 8 5 12 17 10 27-3 18-18 19-254 22-226 2-252 1-258-14z"/>
  </g>
</svg>
