<?xml version="1.0" encoding="UTF-8"?>
<svg width="90mm"  height="90mm" preserveAspectRatio="xMidYMid" version="1.1" viewBox="0 0 90 90" xmlns="http://www.w3.org/2000/svg" class="svg-content">
  <g fill="none" stroke="#000" stroke-linecap="round" stroke-linejoin="round" stroke-miterlimit="10" stroke-width="2.1167" >
    <path d="m54.648 71.564v-31.609c0-5.2846-8.4667-12.33-8.4667-15.854v-7.045h-28.575v7.0556c0 3.5278-8.4667 10.583-8.4667 15.875v35.359c0 4.826 3.9123 8.7383 8.7383 8.7383h26.892"/>
    <path d="m49.004 7.1786h-34.219v9.8778h34.219z"/>
    <path d="m9.1397 45.631h45.508"/>
    <path d="m9.1397 75.617h32.808"/>
    <path d="m19.018 52.687h25.753"/>
    <path d="m21.84 59.742h14.464"/>
    <path d="m27.837 65.74h14.111"/>
    <path d="m54.142 72.784c2.6846 2.6882 2.6846 7.0414 0 9.7296-2.6882 2.6846-7.0414 2.6846-9.7296 0-2.6846-2.6882-2.6846-7.0414 0-9.7296 2.6882-2.6846 7.0414-2.6846 9.7296 0z"/>
    <path d="m86.255 34.776-15.459 15.459c-0.381 0.38452-1.0054 0.38452-1.3899 0l-4.2263-4.2263c-0.38453-0.38453-0.38453-1.0054 0-1.3899l15.459-15.459c0.38453-0.38453 1.0089-0.38453 1.3935 0l4.2228 4.2263c0.38453 0.38453 0.38453 1.0054 0 1.3899z"/>
    <path d="m72.909 36.889 5.6162 5.6162"/>
    <path d="m78.095 70.53-19.237-10.386c-0.47625-0.25752-0.65617-0.85372-0.39864-1.3335l2.8399-5.2599c0.25753-0.47625 0.85372-0.65617 1.3335-0.39864l19.237 10.386c0.47625 0.25753 0.65617 0.85725 0.39864 1.3335l-2.8399 5.2599c-0.25753 0.47625-0.85372 0.65617-1.3335 0.39864z"/>
    <path d="m72.25 58.345-3.7712 6.992"/>
  </g>
</svg>
