<?xml version="1.0" encoding="UTF-8" standalone="no"?>
<svg
        version="1.0"
        width="90pt"
        height="90pt"
        viewBox="0 0 90 90"
        preserveAspectRatio="xMidYMid"
        id="svg2363"
        sodipodi:docname="Kartoteka.svg"
        inkscape:version="1.2.1 (9c6d41e410, 2022-07-14)"
        xmlns:inkscape="http://www.inkscape.org/namespaces/inkscape"
        xmlns:sodipodi="http://sodipodi.sourceforge.net/DTD/sodipodi-0.dtd"
        xmlns="http://www.w3.org/2000/svg"
        xmlns:svg="http://www.w3.org/2000/svg">
  <defs
          id="defs2367" />
  <sodipodi:namedview
          id="namedview2365"
          pagecolor="#ffffff"
          bordercolor="#000000"
          borderopacity="0.25"
          inkscape:showpageshadow="2"
          inkscape:pageopacity="0.0"
          inkscape:pagecheckerboard="0"
          inkscape:deskcolor="#d1d1d1"
          inkscape:document-units="pt"
          showgrid="false"
          inkscape:zoom="4.8827586"
          inkscape:cx="88.269774"
          inkscape:cy="83.764124"
          inkscape:window-width="1920"
          inkscape:window-height="1129"
          inkscape:window-x="-8"
          inkscape:window-y="230"
          inkscape:window-maximized="1"
          inkscape:current-layer="svg2363" />
  <g
          transform="matrix(0.03305214,0,0,-0.03305214,-3.4020516,93.137208)"
          fill="#000000"
          stroke="none"
          id="g2361">
    <path
            d="m 407,2389 c -31,-18 -47,-65 -47,-139 v -70 h -63 c -112,0 -102,78 -105,-809 -2,-500 1,-777 7,-794 l 11,-27 h 1078 1079 l 22,23 c 16,18 47,118 120,393 55,203 133,496 175,651 42,155 73,289 70,298 -10,24 -38,35 -93,35 -28,0 -51,3 -51,6 0,3 9,41 20,85 22,85 18,109 -20,129 -12,7 -302,10 -849,10 H 930 v 70 c 0,76 -16,122 -49,140 -11,5 -65,10 -121,10 -81,0 -102,-3 -106,-15 -13,-34 15,-45 112,-45 h 94 v -81 c 0,-77 10,-115 34,-131 6,-4 276,-8 599,-8 h 588 l -3,-27 -3,-28 -864,-3 c -618,-1 -868,-5 -878,-13 -10,-9 -13,-61 -13,-245 0,-205 2,-235 17,-249 16,-16 18,-16 35,5 16,20 18,45 18,231 v 209 h 831 830 l -3,-22 -3,-23 -289,-5 c -259,-4 -290,-7 -300,-22 -25,-40 -1,-43 308,-43 267,0 296,2 313,18 12,10 30,54 43,105 12,48 27,93 33,100 7,9 63,12 218,12 240,0 220,12 188,-112 l -20,-81 20,-20 c 13,-14 38,-22 75,-25 31,-2 56,-7 56,-11 -1,-3 -76,-287 -168,-631 l -168,-625 -1043,-3 -1043,-2 7,27 c 9,40 303,1139 320,1198 l 14,50 h 350 c 368,0 390,3 365,43 -10,15 -43,17 -371,20 -287,2 -363,0 -377,-11 -13,-10 -40,-94 -92,-287 -41,-151 -74,-282 -74,-292 0,-10 -7,-18 -15,-18 -10,0 -15,10 -15,34 0,19 -7,39 -16,47 -14,11 -18,10 -30,-6 -11,-14 -14,-60 -14,-194 0,-151 -3,-189 -22,-263 -15,-58 -27,-88 -37,-88 -11,0 -12,10 -7,46 3,26 6,307 6,625 v 579 h 63 c 34,0 67,4 73,8 24,16 34,54 34,131 v 81 h 39 c 41,0 67,20 57,45 -6,18 -90,21 -119,4 z"
            id="path2357" />
    <path
            d="m 1501,1523 c -12,-10 -30,-45 -39,-78 l -18,-60 -66,-3 c -46,-2 -70,-8 -81,-20 -15,-17 -77,-220 -77,-254 0,-26 40,-48 87,-48 48,0 51,-6 32,-73 -9,-33 -8,-42 7,-58 15,-17 32,-19 139,-19 82,0 127,4 138,13 10,7 26,39 36,72 l 19,60 65,5 c 41,3 72,11 82,21 17,17 74,208 75,250 0,37 -18,49 -77,49 -29,0 -53,4 -53,9 0,5 5,33 12,62 11,49 11,52 -11,70 -33,27 -238,28 -270,2 z m 215,-75 c -29,-106 -18,-128 60,-128 31,0 54,-4 54,-10 0,-6 -10,-49 -21,-95 l -21,-85 h -62 c -70,0 -100,-16 -110,-57 -4,-16 -12,-45 -17,-65 l -10,-38 h -96 c -94,0 -95,0 -89,23 4,12 10,42 13,66 7,55 -10,71 -80,71 h -49 l 7,30 c 4,17 15,58 24,93 l 18,62 71,5 c 83,6 93,15 112,97 l 11,53 h 96 c 94,0 95,0 89,-22 z"
            id="path2359" />
  </g>
</svg>
