<?xml version="1.0" encoding="UTF-8"?>
<svg width="90pt" height="90pt" preserveAspectRatio="xMidYMid" version="1.0" viewBox="0 0 90 90" xmlns="http://www.w3.org/2000/svg" class="svg-content">
  <g transform="matrix(.033052 0 0 -.033052 -3.4021 93.137)">
    <path d="m407 2389c-31-18-47-65-47-139v-70h-63c-112 0-102 78-105-809-2-500 1-777 7-794l11-27h2157l22 23c16 18 47 118 120 393 55 203 133 496 175 651s73 289 70 298c-10 24-38 35-93 35-28 0-51 3-51 6s9 41 20 85c22 85 18 109-20 129-12 7-302 10-849 10h-831v70c0 76-16 122-49 140-11 5-65 10-121 10-81 0-102-3-106-15-13-34 15-45 112-45h94v-81c0-77 10-115 34-131 6-4 276-8 599-8h588l-3-27-3-28-864-3c-618-1-868-5-878-13-10-9-13-61-13-245 0-205 2-235 17-249 16-16 18-16 35 5 16 20 18 45 18 231v209h1661l-3-22-3-23-289-5c-259-4-290-7-300-22-25-40-1-43 308-43 267 0 296 2 313 18 12 10 30 54 43 105 12 48 27 93 33 100 7 9 63 12 218 12 240 0 220 12 188-112l-20-81 20-20c13-14 38-22 75-25 31-2 56-7 56-11-1-3-76-287-168-631l-168-625-1043-3-1043-2 7 27c9 40 303 1139 320 1198l14 50h350c368 0 390 3 365 43-10 15-43 17-371 20-287 2-363 0-377-11-13-10-40-94-92-287-41-151-74-282-74-292s-7-18-15-18c-10 0-15 10-15 34 0 19-7 39-16 47-14 11-18 10-30-6-11-14-14-60-14-194 0-151-3-189-22-263-15-58-27-88-37-88-11 0-12 10-7 46 3 26 6 307 6 625v579h63c34 0 67 4 73 8 24 16 34 54 34 131v81h39c41 0 67 20 57 45-6 18-90 21-119 4z"/>
    <path d="m1501 1523c-12-10-30-45-39-78l-18-60-66-3c-46-2-70-8-81-20-15-17-77-220-77-254 0-26 40-48 87-48 48 0 51-6 32-73-9-33-8-42 7-58 15-17 32-19 139-19 82 0 127 4 138 13 10 7 26 39 36 72l19 60 65 5c41 3 72 11 82 21 17 17 74 208 75 250 0 37-18 49-77 49-29 0-53 4-53 9s5 33 12 62c11 49 11 52-11 70-33 27-238 28-270 2zm215-75c-29-106-18-128 60-128 31 0 54-4 54-10s-10-49-21-95l-21-85h-62c-70 0-100-16-110-57-4-16-12-45-17-65l-10-38h-96c-94 0-95 0-89 23 4 12 10 42 13 66 7 55-10 71-80 71h-49l7 30c4 17 15 58 24 93l18 62 71 5c83 6 93 15 112 97l11 53h96c94 0 95 0 89-22z"/>
  </g>
</svg>
