<?xml version="1.0" encoding="UTF-8"?>
<svg width="90mm" height="90mm" version="1.1" viewBox="0 0 90 90" xmlns="http://www.w3.org/2000/svg" class="svg-content">
  <g fill="none" stroke="#000" stroke-linecap="round" stroke-linejoin="round" stroke-miterlimit="10" stroke-width="2.1167">
    <path d="m11.205 73.426h-3.175v-7.7752c0-3.2173 2.607-5.8279 5.8208-5.8279s5.8208 2.6106 5.8208 5.8279v7.7752h-2.8222"/>
    <path d="m13.816 58.363c0-3.997 1.4252-8.5443 7.1226-8.5443"/>
    <path d="m35.695 49.832c1.7568 0 4.512 1.0019 6.1842 3.2702"/>
    <path d="m2.4211 76.876s0.66322-11.621 1.4252-15.667c0.94192-5.0024 17.424-10.375 17.424-10.375l6.5969 4.0005"/>
    <path d="m43.872 53.678c-4.5332-1.718-8.7383-2.8434-8.7383-2.8434l-7.2672 4.0005"/>
    <path d="m15.439 28.81v-4.004c0-4.9742 2.8116-11.01 9.0099-11.01 2.353-1.1748 4.0005-0.99836 7.0062-0.99836 3.2561 0 7.172 1.8944 9.0064 6.0043 1.2524 2.8046 1.0019 6.0043 1.0019 10.008-3.0021 0-4.004-3.0021-4.004-3.0021s-11.01 0-15.014-4.004c-1.0019 5.0059-4.004 7.0062-7.0062 7.0062z"/>
    <path d="m22.141 43.44v7.0556"/>
    <path d="m33.783 43.44v7.0556"/>
    <path d="m40.877 27.833s1.2559 5.782-1.9967 7.0168c-1.1501 3.2385-3.6512 6.6252-5.4116 8.5337-0.86783 0.94192-2.0955 1.4676-3.3761 1.4676h-4.4521c-1.2806 0-2.5082-0.52564-3.3761-1.4676-1.7604-1.9085-4.2616-5.2952-5.4116-8.5337-3.2526-1.2347-2.0002-7.0168-2.0002-7.0168"/>
    <path d="m73.957 28.433s-2.0884 19.914-10.964 19.914c-8.8794 0-10.964-19.914-10.964-19.914 2.988 0 12.958-1.7568 16.944-7.9728 1.9932 6.2159 4.9848 7.9728 4.9848 7.9728"/>
    <path d="m77.245 52.316s5.9302-18.397-0.18697-30.448c-3.8594-7.6024-6.7204-8.3891-13.212-8.3891-6.4911 0-10.566 0.77611-14.425 8.3785-6.1172 12.054-0.23283 30.311-0.23283 30.311"/>
    <path d="m87.874 76.876s-0.96309-12.305-1.4217-15.667c-0.45155-3.2879-1.1359-5.7609-6.3853-7.8564-5.2458-2.099-10.096-2.988-10.096-2.988-1.9932 3.9864-3.9899 6.9779-6.9779 8.9711-2.9916-1.9932-4.9848-4.9848-6.9779-8.9711 0 0-4.8507 0.889-10.1 2.988-5.2458 2.0955-6.2971 4.1945-7.3448 7.3448-1.0513 3.1468-1.965 16.178-1.965 16.178"/>
    <path d="m46.483 73.426h-2.8222v-7.7152c0-3.1962 2.607-5.7891 5.8208-5.7891 3.2138 0 5.8208 2.5929 5.8208 5.7891v7.7152h-2.8222"/>
    <path d="m49.422 59.788c0-4.4768 1.4252-9.9695 5.6974-9.9695"/>
    <path d="m80.755 68.332c0-1.5734-1.2735-2.8504-2.8504-2.8504-1.5734 0-2.8469 1.2771-2.8469 2.8504s1.2735 2.8469 2.8469 2.8469c1.5769 0 2.8504-1.2735 2.8504-2.8469z"/>
    <path d="m70.786 49.818c1.5346 0 3.9405 1.0372 5.4046 3.3902 1.5275 3.2279 1.778 7.1191 1.7533 11.095"/>
    <path d="m56.015 50.365 1.27-5.4645"/>
    <path d="m69.971 50.365-1.27-5.4645"/>
  </g>
</svg>
