<?xml version="1.0" encoding="UTF-8"?>
<svg width="90mm" height="90mm" version="1.1" viewBox="0 0 90 90" xmlns="http://www.w3.org/2000/svg" class="svg-content">
  <g fill="none" stroke="#000" stroke-linecap="round" stroke-linejoin="round" stroke-miterlimit="10" stroke-width="2.1167">
    <path d="m60.341 23.95s-2.981 28.452-15.667 28.452c-12.682 0-15.667-28.452-15.667-28.452 4.2757 0 18.517-2.5118 24.215-11.395 2.8469 8.8829 7.1191 11.395 7.1191 11.395"/>
    <path d="m65.04 58.07s8.4737-26.282-0.26811-43.501c-5.5139-10.866-10.82-11.998-20.098-11.998-9.2745 0-14.915 1.1324-20.429 11.998-8.7383 17.219 0.70556 43.289 0.70556 43.289"/>
    <path d="m81.705 88.039s-0.635-13.494-2.1343-17.992c-1.4993-4.4979-2.9986-7.4965-10.499-10.495-7.4965-2.9986-14.429-4.2686-14.429-4.2686-2.8469 5.6974-5.6974 9.9695-9.9695 12.816-4.2721-2.8469-7.1191-7.1191-9.9695-12.816 0 0-6.9321 1.27-14.429 4.2686-7.4965 2.9986-8.9958 5.9972-10.495 10.495-1.4993 4.4979-2.1343 17.992-2.1343 17.992"/>
    <path d="m17.545 88.039h-2.8222v-11.698c0-4.8472 3.7924-8.7771 8.4667-8.7771s8.4667 3.9299 8.4667 8.7771v11.698h-2.8222"/>
    <path d="m23.313 66.936c0-6.3923 4.6531-13.077 11.652-13.077"/>
    <path d="m70.31 80.92c0-2.3601-1.9085-4.2721-4.2721-4.2721-2.3601 0-4.2721 1.9121-4.2721 4.2721 0 2.3566 1.9121 4.2721 4.2721 4.2721 2.3636 0 4.2721-1.9156 4.2721-4.2721z"/>
    <path d="m54.644 53.858c2.4448 0 6.2759 1.5275 8.6078 4.9953 2.4306 4.759 2.8222 10.488 2.7834 16.344"/>
    <path d="m34.705 55.283 1.8168-7.8105"/>
    <path d="m54.644 55.283-1.8133-7.8105"/>
  </g>
</svg>
