<?xml version="1.0" encoding="UTF-8"?>
<!DOCTYPE svg  PUBLIC '-//W3C//DTD SVG 20010904//EN'  'http://www.w3.org/TR/2001/REC-SVG-20010904/DTD/svg10.dtd'>
<svg width="269pt" height="281pt" preserveAspectRatio="xMidYMid" version="1.0" viewBox="0 0 269 281" xmlns="http://www.w3.org/2000/svg" class="svg-content">
    <g transform="translate(0 281) scale(.1 -.1)">
        <path d="m762 2623c-19-9-36-22-39-30-4-9-27-13-82-13-52 0-83-5-97-15-14-11-49-15-134-15-128 0-173-14-222-66-41-44-48-75-48-213 0-105 3-131 16-142 11-9 20-10 32-2 14 8 18 34 22 146 5 125 7 137 28 160 38 40 70 48 182 45l105-3v-30-30l-107-5c-85-4-111-9-125-23-16-16-18-44-21-267l-3-250h-29-30v64c0 71-17 99-48 79-12-7-19-30-23-84-3-41-9-82-13-91-10-23 10-117 46-210 86-224 285-414 506-483 48-15 97-31 108-35 21-8 22-16 27-207 4-163 9-211 27-273 62-213 209-390 405-485 111-53 183-69 325-69 150-1 214 14 350 81 80 39 109 60 185 137 100 100 154 190 197 326 23 73 23 83 23 479 0 366-2 405-17 414-12 8-21 7-32-2-14-12-16-59-16-391 0-342-2-384-20-454-60-237-247-431-485-502-93-28-278-26-375 4-186 58-336 185-421 357-63 128-71 166-76 396-6 247-4 241-116 270-260 66-458 249-543 501-36 104-35 108 30 108h54l21-67c62-204 241-374 450-428 81-21 235-21 316 0 209 53 394 230 455 434l16 56 57 3c67 4 66 4 36-94-26-85-49-131-105-212-24-35-44-69-44-77 0-21 32-35 53-24 24 14 94 120 128 196 41 89 74 232 60 255-7 12-11 109-11 285 0 298-5 322-69 376-44 37-90 47-217 47-87 0-114 3-124 15-9 11-33 15-90 15-58 0-81 4-91 16-38 46-122 57-177 24-32-20-32-20-69 0-45 24-96 25-141 3zm115-75c20-19 23-31 23-104 0-77-2-84-26-103-15-12-34-21-44-21s-29 9-44 21c-24 19-26 26-26 102 0 69 3 84 22 104 27 29 65 29 95 1zm217 1c24-19 26-26 26-100 0-71-3-82-25-104-27-28-42-30-78-14-33 15-47 49-47 115 0 108 57 156 124 103zm-406-101-3-63-42-3-43-3v65 66h45 46l-3-62zm590 0-3-63h-40-40l-3 63-3 62h46 46l-3-62zm329 12c60-36 63-52 63-335v-255h-32-33l4 206c5 333 5 334-154 334h-105v35 35h113c93 0 117-3 144-20zm-1061-135c11-11 37-15 91-15 65 0 79-3 104-25 16-13 45-27 64-31 37-7 97 9 115 31 11 13 16 12 41-6 55-39 143-34 184 11 15 17 31 20 95 20 57 0 81 4 90 15s35 15 106 15h94v-234c0-183-3-236-13-245-8-6-19-36-26-66-43-192-215-369-407-420-85-23-224-21-304 4-71 22-167 77-224 128-79 71-157 201-172 287-3 22-15 52-25 65-17 22-19 44-19 252v229h96c71 0 99-4 110-15z"/>
        <path d="m2132 2580c-105-22-214-115-251-216-28-74-28-175 1-251 26-71 100-152 168-184 50-24 64-51 41-75-6-5-11-231-13-559-3-496-6-555-22-605-72-221-260-361-486-362-167 0-310 73-407 209-77 108-87 149-91 374l-3 196 73 18c82 21 249 101 291 140 22 21 25 30 17 45-14 27-45 25-84-5-48-37-193-101-261-116-36-8-69-23-83-37-24-23-24-23-20-240 5-249 13-285 98-409 129-189 375-285 601-233 204 46 385 226 428 425 19 88 19 101 20 608l1 497h55 54l3-81c2-63 7-84 20-92 12-8 21-7 32 2 13 11 16 35 16 117 0 58-4 106-10 109-5 3-10 16-10 29 0 16 12 28 45 44 69 34 129 94 161 165 25 53 29 75 29 147s-4 94-28 145c-67 142-233 226-385 195zm195-96c56-27 91-63 126-128 16-31 22-59 22-116 0-66-4-82-31-130-28-50-101-120-125-120-16 0-11 90 6 96 21 9 62 81 70 125 9 50-10 113-48 156-109 124-319 58-335-106-6-63 11-112 54-158 27-28 34-44 34-74 0-50-15-50-73 1-171 150-109 415 111 476 60 17 123 9 189-22zm-48-149c34-29 56-85 47-120-10-38-54-84-93-94-100-28-190 89-137 178 38 64 128 82 183 36zm-44-375v-85l-32-3-33-3v84c0 46 3 87 7 91s19 6 33 4c25-3 25-4 25-88z"/>
        <path d="m2177 2264c-12-12-8-41 7-53 22-18 58 4 54 32-3 22-45 36-61 21z"/>
    </g>
</svg>
