<?xml version="1.0" encoding="UTF-8"?>
<svg width="90mm" height="90mm" version="1.1" viewBox="0 0 90 90" xmlns="http://www.w3.org/2000/svg">
  <g fill="none" stroke-linecap="round" stroke-linejoin="round" stroke-miterlimit="10" stroke-width="2.1167">
    <path d="m-499.52-198.1 0.0579 35.645 14.053 0.0141-0.0565-35.645z" stroke="#199"/>
    <path d="m-485.17-188.7s10.672-7.9163 23.047-4.3215c11.405 3.3161 7.0732 7.1931 19.449 5.394 13.331-1.9368 14.146 8.9923-12.375 8.9923" stroke="#199"/>
    <path d="m-432.06-185.83s3.5348-1.7992 7.0697-3.5948c3.5384-1.7992 8.8406-3.5983 10.612 0 1.7674 3.5948-5.3058 7.1896-14.146 12.584-8.8406 5.3975-12.375 8.9923-22.987 8.9923-10.608 0-22.983-1.7992-33.595-1.7992" stroke="#199"/>
    <path d="m72.145 80.57c0-2.3601-1.9085-4.2721-4.2721-4.2721-2.3601 0-4.2721 1.9121-4.2721 4.2721 0 2.3566 1.9121 4.2721 4.2721 4.2721 2.3636 0 4.2721-1.9156 4.2721-4.2721z" stroke="#000"/>
    <path d="m5.2088 87.689s0.28222-11.331 1.4746-17.089c1.4781-7.1226 28.063-14.245 28.063-14.245l10.34 5.6974" stroke="#000"/>
    <path d="m84.965 87.689s-0.28222-11.331-1.4781-17.089c-1.4746-7.1226-28.06-14.245-28.06-14.245l-10.34 5.6974" stroke="#000"/>
    <path d="m26.534 25.025v-5.6974c0-7.0838 4.004-15.667 12.816-15.667 3.3514-1.6757 5.6974-1.4252 9.9695-1.4252 4.6355 0 10.209 2.6952 12.82 8.5443 1.7815 3.9934 1.4252 8.5478 1.4252 14.245-4.2721 0-5.6974-4.2757-5.6974-4.2757s-15.667 0-21.364-5.6938c-1.4252 7.1191-5.6974 9.9695-9.9695 9.9695z" stroke="#000"/>
    <path d="m35.001 45.708v10.936" stroke="#000"/>
    <path d="m55.109 45.708v10.936" stroke="#000"/>
    <path d="m63.601 25.025s1.7851 8.2232-2.8434 9.9801c-1.6192 4.5508-5.1118 9.3098-7.6094 12.047-1.27 1.39-3.0656 2.1837-4.9495 2.1837h-6.223c-1.8838 0-3.6795-0.79375-4.953-2.1837-2.4977-2.7376-5.9902-7.4965-7.6094-12.047-4.6284-1.7568-2.8399-9.9801-2.8399-9.9801" stroke="#000"/>
    <path d="m-418.38-235.12h-12.7v-12.7h-20.108v12.7h-12.7v20.108h12.7v12.347h20.108v-12.347h12.7z" stroke="#199"/>
  </g>
</svg>
