<?xml version="1.0" encoding="UTF-8"?>
<svg width="90pt" height="90pt" preserveAspectRatio="xMidYMid" version="1.0" viewBox="0 0 90 90" xmlns="http://www.w3.org/2000/svg">
  <g transform="matrix(.031904 0 0 -.031904 .025055 89.617)">
    <path d="m1327 2700c-42-13-96-58-114-95l-16-33-96-4c-117-4-158-25-191-93l-22-45h-137c-127 0-141-2-172-23-74-49-69 27-69-1122 0-984 1-1032 19-1065 10-19 36-45 57-57l39-23h740c825 0 784-3 832 69 23 33 23 39 23 325v290l210 211c200 201 210 213 210 249 0 34-8 46-69 107s-73 69-106 69c-34 0-47-9-124-85-48-47-95-85-104-85-16 0-17 28-17 344 0 293-2 345-15 356-12 10-18 10-30 0-13-11-15-68-15-404v-392l-33-32c-18-18-38-32-45-32-9 0-12 129-12 553v554l-23 21c-20 19-35 22-115 22h-92v91l146-3c178-4 174-1 174-132 0-98 7-120 36-114 17 3 19 15 22 111l3 107-40 43-40 42-148 3-149 3-13 34c-26 73-95 105-223 105-62 0-78 3-78 15 0 19-57 83-89 99-38 20-82 26-114 16zm108-76c14-9 30-34 37-56 18-60 37-68 156-68 96 0 105-2 127-25 22-21 25-33 25-90v-65h-289c-250 0-292-2-305-16-48-47-10-54 308-54h286v-29c0-60-5-61-415-61-282 0-375 3-387 13-9 6-19 27-23 45-7 32-6 32 33 32 24 0 47 7 57 16 15 15 15 18-1 35-11 13-31 19-57 19-36 0-39 2-33 23 3 12 6 43 6 68 0 77 10 83 149 89 105 4 122 8 135 25 9 11 16 28 16 38s13 32 29 48c24 24 38 29 76 29 25 0 57-7 70-16zm-545-299v-45h-92c-99 0-109-3-127-37-12-23-17-726-5-757 10-25 51-20 58 7 3 12 6 181 6 375v352h161l5-29c4-16 19-42 36-58l29-28 390-3c447-3 446-3 481 75l19 44 154-6 3-583 2-584-85-81-86-82-604-10v-50l263-3c144-1 262-6 262-10s-25-33-54-64l-54-58-209-2-208-3v-50l178-3c122-2 177-6 177-14 0-6-28-66-62-134l-61-124h-737v473c0 259-3 482-6 495-7 26-48 31-58 6-10-26-7-970 3-997 18-47 24-48 719-45 634 3 654 4 668 22 11 15 14 59 14 188v168l37 35c20 19 41 35 45 35s8-109 8-243c0-203-3-246-16-265l-15-22h-763c-698 0-765 1-777 17-12 13-14 190-14 1060v1044l25 19c22 17 42 20 158 20h132zm1642-972c27-27 48-56 48-68 0-23-42-69-59-64-17 7-121 110-121 122 0 19 43 57 64 57 11 0 42-21 68-47zm-115-115c29-29 53-59 53-68 0-16-619-640-635-640-13 0-125 112-125 125 0 16 624 635 640 635 8 0 38-23 67-52zm-690-690c29-29 53-57 53-63 0-12-62-45-82-45-16 0-78 61-78 77 0 21 33 83 44 83 6 0 34-23 63-52zm283-73v-115h-145c-162 0-171 6-82 53 29 15 86 61 127 102s80 75 87 75c10 0 13-28 13-115zm-395-65c7-11-42-37-51-27-4 3-4 13-1 22 7 17 42 21 52 5z"/>
    <path d="m1343 2554c-3-8 2-23 11-32 14-15 18-15 31-1 9 9 13 23 9 32-8 21-43 22-51 1z"/>
    <path d="m1256 1978c-11-15-16-45-16-85v-63h-63c-95 0-107-13-107-109 0-104 8-114 99-119l71-4v-64c0-90 16-104 114-104 91 0 106 11 106 78 0 86 3 89 83 95 88 6 97 16 97 112 0 99-9 109-104 113l-76 4v74c0 89-6 94-114 94-66 0-77-3-90-22zm144-108c0-94 15-110 105-110h65v-90h-65c-52 0-69-4-85-20s-20-33-20-85v-65h-88l-4 71c-5 89-16 99-110 99h-68v90h60c104 0 120 16 120 123v57h90z"/>
    <path d="m903 1253c-18-7-16-50 3-57 26-10 194-7 215 4 10 6 19 17 19 25s-9 19-19 25c-20 10-195 13-218 3z"/>
    <path d="m1248 1253c-23-6-24-49-2-57 28-11 564-7 585 4 10 6 19 17 19 25 0 31-39 35-312 34-150-1-281-3-290-6z"/>
    <path d="m903 1063c-7-2-13-15-13-28 0-29 21-35 128-35 86 0 122 10 122 35 0 8-9 19-19 25-20 10-195 13-218 3z"/>
    <path d="m1243 1063c-22-8-15-50 10-57 39-10 557-7 578 4 23 13 25 46 3 54-19 7-573 7-591-1z"/>
    <path d="m897 873c-4-3-7-17-7-30v-24l122 3c111 3 123 5 126 22 2 10-2 22-10 27-15 10-222 12-231 2z"/>
    <path d="m894 675c-3-8-3-22 0-30 5-13 25-15 123-13l118 3v50l-118 3c-98 2-118 0-123-13z"/>
  </g>
</svg>
