<?xml version="1.0" encoding="UTF-8"?>
<!DOCTYPE svg  PUBLIC '-//W3C//DTD SVG 20010904//EN'  'http://www.w3.org/TR/2001/REC-SVG-20010904/DTD/svg10.dtd'>
<svg width="500pt" height="150pt" version="1.0" viewBox="0 0 500 150" xmlns="http://www.w3.org/2000/svg">
    <g transform="translate(0 150) scale(.1 -.1)">
        <path d="m295 1227c-4-51-2-144 4-208 34-362 177-570 430-629 66-15 225-16 300-1 54 11 55 11 89-21 19-18 54-61 79-96s47-61 50-59c7 8-36 112-68 162l-31 49-2 170c-2 157-4 177-29 250-59 170-158 265-349 336-29 10-129 40-223 65-93 25-186 52-207 60l-36 14-7-92zm371-299c154-117 264-226 307-306 16-30 27-55 25-56-6-5-302 202-356 249-29 26-70 70-92 99-34 46-120 192-120 207 0 3 22-16 49-42 26-25 111-94 187-151z"/>
        <path d="m3260 1094c-88-35-120-74-120-144 0-83 59-137 175-160 72-15 108-32 129-62 33-47 11-133-39-156-37-17-131-15-169 3-18 9-43 29-55 45-41 56-79 26-42-33 34-55 93-82 181-82 95 0 141 21 175 80 42 71 28 155-34 208-21 18-57 32-113 44-127 27-166 65-146 140 11 41 53 64 118 65 55 0 81-12 128-55 30-29 33-30 49-15 15 16 15 19-1 42-31 48-92 80-160 83-33 1-68 0-76-3z"/>
        <path d="m1726 1082c-22-36-226-539-224-551 2-9 13-17 25-19 17-3 25 8 49 68l27 71 146-3 145-3 28-65c22-53 31-65 50-65 12 0 24 7 25 15 2 8-48 137-111 285-91 215-118 271-134 273-11 2-23-1-26-6zm88-241c31-74 56-136 56-138s-54-3-121-3c-111 0-121 1-115 18 42 110 112 270 118 264 4-4 32-68 62-141z"/>
        <path d="m4305 1077c-3-7-4-136-3-287 3-260 4-275 22-278 27-6 36 15 36 84 0 52 4 64 25 84 29 28 19 35 119-87 42-52 75-83 87-83 36 0 20 37-56 130-41 51-75 96-75 100 0 5 34 39 75 76 73 65 89 95 55 102-9 1-63-40-120-92l-105-94-6 176c-3 97-6 178-7 180-6 8-43 0-47-11z"/>
        <path d="m3650 1066c-19-23-8-61 18-64 44-7 67 32 36 62-19 20-38 20-54 2z"/>
        <path d="m2189 897c-24-13-57-43-74-66l-30-43-3-223c-3-201-1-223 14-229 35-14 44 11 44 126v109l33-25c64-49 141-54 219-15 115 58 135 244 36 336-60 56-164 69-239 30zm179-54c50-38 67-70 67-132-1-95-57-151-150-151-88 0-137 50-143 145-3 50 0 65 20 94 48 70 144 90 206 44z"/>
        <path d="m2719 897c-24-13-57-43-74-66l-30-43-3-223c-3-201-1-223 14-229 35-14 44 11 44 126v109l33-25c41-31 105-48 148-40 43 9 99 37 120 60 73 83 67 227-13 301-60 56-164 69-239 30zm179-54c93-70 94-197 2-260-24-17-47-23-87-23-49 0-58 4-95 39-39 36-42 42-46 102-3 55 0 69 20 98 48 70 144 90 206 44z"/>
        <path d="m3654 907c-2-7-3-98-2-202 3-185 4-190 24-193 15-2 23 4 28 20 10 39 7 348-4 369-12 22-38 25-46 6z"/>
        <path d="m3940 898c-161-82-137-333 36-384 74-21 157-4 194 41 11 13 11 18-2 31-14 14-19 13-49-5-45-28-120-28-164-1-48 29-68 79-63 153 4 54 8 63 41 93 20 18 48 36 62 40 38 9 91-4 124-31 52-45 91-19 45 30-53 57-148 71-224 33z"/>
    </g>
</svg>
